<svg width="42" height="42" viewBox="0 0 42 42" fill="none" xmlns="http://www.w3.org/2000/svg">
<path id="Bata" fill-rule="evenodd" clip-rule="evenodd" d="M1.64272 40.3231H28.9259C35.5162 40.3231 40.8587 34.9806 40.8587 28.3903C40.8587 21.8887 35.659 16.6016 29.1913 16.4604C29.5253 15.3613 29.7049 14.1949 29.7049 12.9866C29.7049 6.39631 24.3624 1.05383 17.7721 1.05383L1.64272 1.05383L1.64272 40.3231ZM17.7721 16.3992H10.1629L10.1629 9.57397L17.7721 9.57397C19.6569 9.57397 21.1847 11.1019 21.1847 12.9866C21.1847 14.8713 19.6569 16.3992 17.7721 16.3992ZM28.9259 31.8029L10.1629 31.8029L10.1629 24.9777H28.9259C30.8107 24.9777 32.3386 26.5056 32.3386 28.3903C32.3386 30.275 30.8107 31.8029 28.9259 31.8029Z" stroke="white" stroke-width="2.00979"/>
</svg>
